<?xml version="1.0" encoding="UTF-8"?>
<svg version="1.1" xmlns="http://www.w3.org/2000/svg" width="32" height="32">
<path d="M0 0 C4.23301121 2.82200747 7.17159664 5.95228992 8.8125 10.875 C9.34335489 17.13908767 8.6358994 21.74687974 4.8125 26.875 C1.20949209 30.27730986 -2.43530629 31.13105678 -7.3125 31.3125 C-12.23082092 31.08183745 -15.09884326 30.05291558 -18.55859375 26.4453125 C-22.38088616 22.09244692 -23.55412942 18.80580054 -23.46875 13 C-22.82620796 8.1452379 -20.17647897 4.79161465 -16.625 1.5 C-11.38219552 -1.99520299 -5.78544111 -2.04192039 0 0 Z " fill="#383838" transform="translate(23.1875,1.125)"/>
<path d="M0 0 C3.082438 3.15582938 3.20421541 4.32555974 3.5 8.625 C3.33324721 12.0350946 3.22247221 13.96409002 1.03125 16.6171875 C-2.20009434 18.8169873 -4.58033551 19.67160671 -8.5 19.75 C-14.65031646 17.47705696 -14.65031646 17.47705696 -17.375 14.6875 C-18.37349822 10.4914301 -18.42496522 6.8759482 -17.375 2.6875 C-12.27759526 -3.4843577 -6.81503076 -2.65028974 0 0 Z " fill="#434343" transform="translate(23.375,7.3125)"/>
<path d="M0 0 C3.76119476 0.62393651 6.18960042 2.34773715 9.25 4.5625 C10.14203125 5.20316406 11.0340625 5.84382813 11.953125 6.50390625 C12.96632813 7.24447266 12.96632813 7.24447266 14 8 C13.01 9.485 13.01 9.485 12 11 C7.0364159 10.5272777 3.76928261 9.32055849 0 6 C-0.375 2.75 -0.375 2.75 0 0 Z " fill="#8D8D8D" transform="translate(6,16)"/>
<path d="M0 0 C4.97166604 0.473492 8.10996636 1.85092515 12 5 C12 5.99 12 6.98 12 8 C7.15409462 7.55946315 3.51858133 5.25494123 0 2 C0 1.34 0 0.68 0 0 Z " fill="#818181" transform="translate(14,5)"/>
<path d="M0 0 C3.63 2.31 7.26 4.62 11 7 C10.67 7.66 10.34 8.32 10 9 C6.41275276 7.66759388 3.08350711 6.29060528 0 4 C0 2.68 0 1.36 0 0 Z " fill="#3E3E3E" transform="translate(7,17)"/>
</svg>
